Encoder ..........: Tommie Cook                                                   
Video Codec.......: AVI.X264
Video Bitrate.....: 2500 Kbps                            
Audio Codec.......: MP3
Audio Bitrate.....: 320kbs
Resolution........: 1280X540                       
Release Date......: N/A
Theatre Date......: 10 May 2013 (USA)
Language..........: English
Subtitles.........: n/a
IMDB Rating.......: 7.5/10
IMDb URL..........:http://www.imdb.com/title/tt1343092/
_______________________________________________________________________________

[color=blue]General
Complete name                            : C:The.Great.Gatsby.2013.720p.TS.X264.26K.mkv
Format                                   : Matroska
Format version                           : Version 4 / Version 2
File size                                : 2.60 GiB
Duration                                 : 2h 12mn
Overall bit rate mode                    : Variable
Overall bit rate                         : 2 810 Kbps
Encoded date                             : UTC 2010-02-22 21:41:31
Writing application                      : mkvmerge v5.9.0 ('On The Loose') built on Dec  9 2012 15:37:01
Writing library                          : libebml v1.3.0 + libmatroska v1.4.0





________________________________________________________________________________

Video

Video
ID                                       : 1
Format                                   : AVC
Format/Info                              : Advanced Video Codec
Format profile                           : High@L4.1
Format settings, CABAC                   : Yes
Format settings, ReFrames                : 4 frames
Muxing mode                              : Header stripping
Codec ID                                 : V_MPEG4/ISO/AVC
Duration                                 : 2h 12mn
Bit rate                                 : 2 500 Kbps
Width                                    : 1 280 pixels
Height                                   : 540 pixels
Display aspect ratio                     : 2.40:1
Frame rate mode                          : Constant
Frame rate                               : 29.970 fps
Color space                              : YUV
Chroma subsampling                       : 4:2:0
Bit depth                                : 8 bits
Scan type                                : Progressive
Bits/(Pixel*Frame)                       : 0.121
Stream size                              : 2.25 GiB (87%)
Writing library                          : x264 core 125 r2200bm 999b753
Encoding settings                        : cabac=1 / ref=3 / deblock=1:-2:-2 / analyse=0x3:0x113 / me=hex / 

subme=7 / psy=1 / psy_rd=1.00:0.25 / mixed_ref=1 / me_range=16 / chroma_me=1 / trellis=1 / 

8x8dct=1 / cqm=0 / deadzone=6,6 / fast_pskip=1 / chroma_qp_offset=-4 / threads=9 / 

lookahead_threads=1 / sliced_threads=0 / nr=0 / decimate=0 / interlaced=0 / bluray_compat=0 / 

constrained_intra=0 / bframes=3 / b_pyramid=2 / b_adapt=1 / b_bias=0 / direct=1 / weightb=1 / 

open_gop=0 / weightp=2 / keyint=250 / keyint_min=25 / scenecut=40 / intra_refresh=0 / 

rc_lookahead=40 / rc=abr / mbtree=1 / bitrate=2500 / ratetol=1.0 / qcomp=0.80 / qpmin=0 / 

qpmax=69 / qpstep=4 / ip_ratio=1.10 / aq=1:0.50
Default                                  : Yes
Forced                                   : No


_________________________________________________________________________________

Audio

Audio
ID                                       : 2
Format                                   : MPEG Audio
Format version                           : Version 1
Format profile                           : Layer 3
Mode                                     : Joint stereo
Mode extension                           : MS Stereo
Muxing mode                              : Header stripping
Codec ID                                 : A_MPEG/L3
Codec ID/Hint                            : MP3
Duration                                 : 2h 22mn
Bit rate mode                            : Variable
Bit rate                                 : 320 Kbps
Channel(s)                               : 2 channels
Sampling rate                            : 48.0 KHz
Compression mode                         : Lossy
Delay relative to video                  : 7s 700ms
Stream size                              : 326 MiB (12%)
Writing library                          : LAME3.99.5
Default                                  : Yes
Forced                                   : No
